<mxfile host="app.diagrams.net" agent="Mozilla/5.0 (X11; Linux x86_64) AppleWebKit/537.36 (KHTML, like Gecko) Chrome/128.0.0.0 Safari/537.36" version="24.7.12">
  <diagram name="Page-1" id="PApGwmLcT2JRCILoETeI">
    <mxGraphModel dx="1368" dy="717" grid="1" gridSize="10" guides="1" tooltips="1" connect="1" arrows="1" fold="1" page="1" pageScale="1" pageWidth="850" pageHeight="1100" math="0" shadow="0">
      <root>
        <mxCell id="0" />
        <mxCell id="1" parent="0" />
        <mxCell id="5xbXWvOdvmnQnRAweQaM-1" value="&lt;h1 style=&quot;margin-top: 0px;&quot;&gt;ZXD&lt;/h1&gt;&lt;p&gt;NeKernel eXtended Driver Format.&lt;/p&gt;&lt;p&gt;An Extended PE32+&lt;/p&gt;&lt;p&gt;With additional headers and such.&lt;/p&gt;" style="text;html=1;whiteSpace=wrap;overflow=hidden;rounded=0;" parent="1" vertex="1">
          <mxGeometry x="40" y="40" width="210" height="130" as="geometry" />
        </mxCell>
        <mxCell id="5xbXWvOdvmnQnRAweQaM-2" value="NeKernel HEADER" style="rounded=0;whiteSpace=wrap;html=1;" parent="1" vertex="1">
          <mxGeometry x="40" y="180" width="310" height="60" as="geometry" />
        </mxCell>
        <mxCell id="5xbXWvOdvmnQnRAweQaM-3" value="PE32+ ZONE" style="rounded=0;whiteSpace=wrap;html=1;" parent="1" vertex="1">
          <mxGeometry x="40" y="260" width="310" height="60" as="geometry" />
        </mxCell>
        <mxCell id="5xbXWvOdvmnQnRAweQaM-4" value="ZXD STUB [1..N]" style="rounded=0;whiteSpace=wrap;html=1;" parent="1" vertex="1">
          <mxGeometry x="40" y="340" width="310" height="60" as="geometry" />
        </mxCell>
        <mxCell id="FgewEam9b60nFajCTQDb-1" value="StubHeapSz, StubStackSz, StubPageFlags..." style="text;html=1;align=left;verticalAlign=middle;whiteSpace=wrap;rounded=0;" vertex="1" parent="1">
          <mxGeometry x="380" y="355" width="290" height="30" as="geometry" />
        </mxCell>
        <mxCell id="FgewEam9b60nFajCTQDb-2" value="Executable image type..." style="text;html=1;align=left;verticalAlign=middle;whiteSpace=wrap;rounded=0;" vertex="1" parent="1">
          <mxGeometry x="380" y="274" width="290" height="30" as="geometry" />
        </mxCell>
        <mxCell id="FgewEam9b60nFajCTQDb-5" value="NeKernel executable header." style="text;html=1;align=left;verticalAlign=middle;whiteSpace=wrap;rounded=0;" vertex="1" parent="1">
          <mxGeometry x="380" y="194" width="290" height="30" as="geometry" />
        </mxCell>
      </root>
    </mxGraphModel>
  </diagram>
</mxfile>
